<svg width="544" height="600" viewBox="0 0 544 600" fill="none" xmlns="http://www.w3.org/2000/svg">
<g filter="url(#filter0_d_301_19)">
<rect x="24" y="24" width="496" height="304" rx="4" fill="white"/>
<rect x="24.5" y="24.5" width="495" height="303" rx="3.5" stroke="#E8E8E8"/>
</g>
<rect x="40.5" y="40.5" width="15" height="15" rx="3.5" fill="white" stroke="#DADADA"/>
<line x1="24" y1="71.5" x2="520" y2="71.5" stroke="#E8E8E8"/>
<rect x="72" y="40" width="96" height="16" rx="4" fill="#D9D9D9"/>
<rect x="184" y="40" width="96" height="16" rx="4" fill="#D9D9D9"/>
<rect x="296" y="40" width="96" height="16" rx="4" fill="#D9D9D9"/>
<rect x="408" y="40" width="96" height="16" rx="4" fill="#D9D9D9"/>
<rect x="40.5" y="80.5" width="15" height="15" rx="3.5" fill="white" stroke="#DADADA"/>
<line x1="24" y1="103.5" x2="520" y2="103.5" stroke="#E8E8E8"/>
<rect x="72" y="84" width="96" height="8" rx="4" fill="#1780A9"/>
<rect x="184" y="84" width="96" height="8" rx="4" fill="#D9D9D9"/>
<rect x="296" y="84" width="96" height="8" rx="4" fill="#D9D9D9"/>
<rect x="408" y="84" width="96" height="8" rx="4" fill="#D9D9D9"/>
<rect x="40.5" y="112.5" width="15" height="15" rx="3.5" fill="white" stroke="#DADADA"/>
<line x1="24" y1="135.5" x2="520" y2="135.5" stroke="#E8E8E8"/>
<rect x="72" y="116" width="96" height="8" rx="4" fill="#1780A9"/>
<rect x="184" y="116" width="96" height="8" rx="4" fill="#D9D9D9"/>
<rect x="296" y="116" width="96" height="8" rx="4" fill="#D9D9D9"/>
<rect x="408" y="116" width="96" height="8" rx="4" fill="#D9D9D9"/>
<rect x="40.5" y="144.5" width="15" height="15" rx="3.5" fill="white" stroke="#DADADA"/>
<line x1="24" y1="167.5" x2="520" y2="167.5" stroke="#E8E8E8"/>
<rect x="72" y="148" width="96" height="8" rx="4" fill="#1780A9"/>
<rect x="184" y="148" width="96" height="8" rx="4" fill="#D9D9D9"/>
<rect x="296" y="148" width="96" height="8" rx="4" fill="#D9D9D9"/>
<rect x="408" y="148" width="96" height="8" rx="4" fill="#D9D9D9"/>
<rect x="40.5" y="176.5" width="15" height="15" rx="3.5" fill="white" stroke="#DADADA"/>
<line x1="24" y1="199.5" x2="520" y2="199.5" stroke="#E8E8E8"/>
<rect x="72" y="180" width="96" height="8" rx="4" fill="#1780A9"/>
<rect x="184" y="180" width="96" height="8" rx="4" fill="#D9D9D9"/>
<rect x="296" y="180" width="96" height="8" rx="4" fill="#D9D9D9"/>
<rect x="408" y="180" width="96" height="8" rx="4" fill="#D9D9D9"/>
<rect x="40.5" y="208.5" width="15" height="15" rx="3.5" fill="white" stroke="#DADADA"/>
<line x1="24" y1="231.5" x2="520" y2="231.5" stroke="#E8E8E8"/>
<rect x="72" y="212" width="96" height="8" rx="4" fill="#1780A9"/>
<rect x="184" y="212" width="96" height="8" rx="4" fill="#D9D9D9"/>
<rect x="296" y="212" width="96" height="8" rx="4" fill="#D9D9D9"/>
<rect x="408" y="212" width="96" height="8" rx="4" fill="#D9D9D9"/>
<rect x="40.5" y="240.5" width="15" height="15" rx="3.5" fill="white" stroke="#DADADA"/>
<line x1="24" y1="263.5" x2="520" y2="263.5" stroke="#E8E8E8"/>
<rect x="72" y="244" width="96" height="8" rx="4" fill="#1780A9"/>
<rect x="184" y="244" width="96" height="8" rx="4" fill="#D9D9D9"/>
<rect x="296" y="244" width="96" height="8" rx="4" fill="#D9D9D9"/>
<rect x="408" y="244" width="96" height="8" rx="4" fill="#D9D9D9"/>
<rect x="40.5" y="272.5" width="15" height="15" rx="3.5" fill="white" stroke="#DADADA"/>
<line x1="24" y1="295.5" x2="520" y2="295.5" stroke="#E8E8E8"/>
<rect x="72" y="276" width="96" height="8" rx="4" fill="#1780A9"/>
<rect x="296" y="276" width="96" height="8" rx="4" fill="#D9D9D9"/>
<rect x="184" y="276" width="96" height="8" rx="4" fill="#D9D9D9"/>
<rect x="408" y="276" width="96" height="8" rx="4" fill="#D9D9D9"/>
<rect x="40.5" y="304.5" width="15" height="15" rx="3.5" fill="white" stroke="#DADADA"/>
<rect x="72" y="308" width="96" height="8" rx="4" fill="#1780A9"/>
<rect x="184" y="308" width="96" height="8" rx="4" fill="#D9D9D9"/>
<rect x="296" y="308" width="96" height="8" rx="4" fill="#D9D9D9"/>
<rect x="408" y="308" width="96" height="8" rx="4" fill="#D9D9D9"/>
<g filter="url(#filter1_d_301_19)">
<rect x="24" y="352" width="200" height="28" rx="4" fill="white"/>
<rect x="24.5" y="352.5" width="199" height="27" rx="3.5" stroke="#E8E8E8"/>
</g>
<g filter="url(#filter2_d_301_19)">
<rect x="24" y="384" width="200" height="192" rx="4" fill="white"/>
<rect x="24.5" y="384.5" width="199" height="191" rx="3.5" stroke="#E8E8E8"/>
</g>
<rect x="40" y="362" width="96" height="8" rx="4" fill="#D9D9D9"/>
<rect x="76" y="408" width="96" height="8" rx="4" fill="#1780A9"/>
<path d="M196.017 359V362.5H208.267V359H196.017ZM196.017 364.25V372.842C196.017 372.93 196.087 373 196.175 373H208.092C208.18 373 208.25 372.93 208.25 372.842V364.25H196H196.017ZM197.767 366H199.517V367.75H197.767V366ZM201.267 366H203.017V367.75H201.267V366ZM204.767 366H206.517V367.75H204.767V366ZM197.767 369.5H199.517V371.25H197.767V369.5ZM201.267 369.5H203.017V371.25H201.267V369.5Z" fill="#1C1C1C"/>
<rect x="40.5" y="400.5" width="23" height="23" rx="3.5" fill="white" stroke="#DADADA"/>
<rect x="40.5" y="440.5" width="167" height="119" rx="3.5" fill="white" stroke="#DADADA"/>
<rect x="184.5" y="400.5" width="23" height="23" rx="3.5" fill="white" stroke="#DADADA"/>
<path d="M53.125 408L54.6719 409.547L52.0938 412.125L54.6719 414.703L53.125 416.25L49 412.125L53.125 408Z" fill="black"/>
<path d="M194.547 408L198.672 412.125L194.547 416.25L193 414.703L195.578 412.125L193 409.547L194.547 408Z" fill="black"/>
<line x1="64.5" y1="440" x2="64.5" y2="560" stroke="#E8E8E8"/>
<line x1="88.5" y1="440" x2="88.5" y2="560" stroke="#E8E8E8"/>
<line x1="112.5" y1="440" x2="112.5" y2="560" stroke="#E8E8E8"/>
<line x1="136.5" y1="440" x2="136.5" y2="560" stroke="#E8E8E8"/>
<line x1="160.5" y1="440" x2="160.5" y2="560" stroke="#E8E8E8"/>
<line x1="184.5" y1="440" x2="184.5" y2="560" stroke="#E8E8E8"/>
<line x1="40" y1="463.5" x2="208" y2="463.5" stroke="#E8E8E8"/>
<line x1="40" y1="487.5" x2="208" y2="487.5" stroke="#E8E8E8"/>
<line x1="40" y1="511.5" x2="208" y2="511.5" stroke="#E8E8E8"/>
<line x1="40" y1="535.5" x2="208" y2="535.5" stroke="#E8E8E8"/>
<g filter="url(#filter3_d_301_19)">
<rect x="252" y="352" width="268" height="28" rx="4" fill="white"/>
<rect x="252.5" y="352.5" width="267" height="27" rx="3.5" stroke="#E8E8E8"/>
</g>
<g filter="url(#filter4_d_301_19)">
<rect x="252" y="384" width="268" height="192" rx="4" fill="white"/>
<rect x="252.5" y="384.5" width="267" height="191" rx="3.5" stroke="#E8E8E8"/>
</g>
<rect x="268" y="362" width="130" height="8" rx="4" fill="#D9D9D9"/>
<rect x="268" y="400" width="130" height="8" rx="4" fill="#D9D9D9"/>
<rect x="268" y="400" width="130" height="8" rx="4" fill="#D9D9D9"/>
<line x1="252" y1="423.5" x2="520" y2="423.5" stroke="#E8E8E8"/>
<rect x="268" y="440" width="130" height="8" rx="4" fill="#1780A9"/>
<line x1="252" y1="463.5" x2="520" y2="463.5" stroke="#E8E8E8"/>
<rect x="268" y="480" width="130" height="8" rx="4" fill="#D9D9D9"/>
<line x1="252" y1="503.5" x2="520" y2="503.5" stroke="#E8E8E8"/>
<rect x="268" y="520" width="130" height="8" rx="4" fill="#D9D9D9"/>
<line x1="252" y1="543.5" x2="520" y2="543.5" stroke="#E8E8E8"/>
<path d="M501.961 364.836L497.836 368.961L493.711 364.836L495.258 363.289L497.836 365.867L500.414 363.289L501.961 364.836Z" fill="black"/>
<defs>
<filter id="filter0_d_301_19" x="8" y="16" width="528" height="336" filterUnits="userSpaceOnUse" color-interpolation-filters="sRGB">
<feFlood flood-opacity="0" result="BackgroundImageFix"/>
<feColorMatrix in="SourceAlpha" type="matrix" values="0 0 0 0 0 0 0 0 0 0 0 0 0 0 0 0 0 0 127 0" result="hardAlpha"/>
<feOffset dy="8"/>
<feGaussianBlur stdDeviation="8"/>
<feComposite in2="hardAlpha" operator="out"/>
<feColorMatrix type="matrix" values="0 0 0 0 0 0 0 0 0 0 0 0 0 0 0 0 0 0 0.125 0"/>
<feBlend mode="normal" in2="BackgroundImageFix" result="effect1_dropShadow_301_19"/>
<feBlend mode="normal" in="SourceGraphic" in2="effect1_dropShadow_301_19" result="shape"/>
</filter>
<filter id="filter1_d_301_19" x="8" y="344" width="232" height="60" filterUnits="userSpaceOnUse" color-interpolation-filters="sRGB">
<feFlood flood-opacity="0" result="BackgroundImageFix"/>
<feColorMatrix in="SourceAlpha" type="matrix" values="0 0 0 0 0 0 0 0 0 0 0 0 0 0 0 0 0 0 127 0" result="hardAlpha"/>
<feOffset dy="8"/>
<feGaussianBlur stdDeviation="8"/>
<feComposite in2="hardAlpha" operator="out"/>
<feColorMatrix type="matrix" values="0 0 0 0 0 0 0 0 0 0 0 0 0 0 0 0 0 0 0.125 0"/>
<feBlend mode="normal" in2="BackgroundImageFix" result="effect1_dropShadow_301_19"/>
<feBlend mode="normal" in="SourceGraphic" in2="effect1_dropShadow_301_19" result="shape"/>
</filter>
<filter id="filter2_d_301_19" x="8" y="376" width="232" height="224" filterUnits="userSpaceOnUse" color-interpolation-filters="sRGB">
<feFlood flood-opacity="0" result="BackgroundImageFix"/>
<feColorMatrix in="SourceAlpha" type="matrix" values="0 0 0 0 0 0 0 0 0 0 0 0 0 0 0 0 0 0 127 0" result="hardAlpha"/>
<feOffset dy="8"/>
<feGaussianBlur stdDeviation="8"/>
<feComposite in2="hardAlpha" operator="out"/>
<feColorMatrix type="matrix" values="0 0 0 0 0 0 0 0 0 0 0 0 0 0 0 0 0 0 0.125 0"/>
<feBlend mode="normal" in2="BackgroundImageFix" result="effect1_dropShadow_301_19"/>
<feBlend mode="normal" in="SourceGraphic" in2="effect1_dropShadow_301_19" result="shape"/>
</filter>
<filter id="filter3_d_301_19" x="236" y="344" width="300" height="60" filterUnits="userSpaceOnUse" color-interpolation-filters="sRGB">
<feFlood flood-opacity="0" result="BackgroundImageFix"/>
<feColorMatrix in="SourceAlpha" type="matrix" values="0 0 0 0 0 0 0 0 0 0 0 0 0 0 0 0 0 0 127 0" result="hardAlpha"/>
<feOffset dy="8"/>
<feGaussianBlur stdDeviation="8"/>
<feComposite in2="hardAlpha" operator="out"/>
<feColorMatrix type="matrix" values="0 0 0 0 0 0 0 0 0 0 0 0 0 0 0 0 0 0 0.125 0"/>
<feBlend mode="normal" in2="BackgroundImageFix" result="effect1_dropShadow_301_19"/>
<feBlend mode="normal" in="SourceGraphic" in2="effect1_dropShadow_301_19" result="shape"/>
</filter>
<filter id="filter4_d_301_19" x="236" y="376" width="300" height="224" filterUnits="userSpaceOnUse" color-interpolation-filters="sRGB">
<feFlood flood-opacity="0" result="BackgroundImageFix"/>
<feColorMatrix in="SourceAlpha" type="matrix" values="0 0 0 0 0 0 0 0 0 0 0 0 0 0 0 0 0 0 127 0" result="hardAlpha"/>
<feOffset dy="8"/>
<feGaussianBlur stdDeviation="8"/>
<feComposite in2="hardAlpha" operator="out"/>
<feColorMatrix type="matrix" values="0 0 0 0 0 0 0 0 0 0 0 0 0 0 0 0 0 0 0.125 0"/>
<feBlend mode="normal" in2="BackgroundImageFix" result="effect1_dropShadow_301_19"/>
<feBlend mode="normal" in="SourceGraphic" in2="effect1_dropShadow_301_19" result="shape"/>
</filter>
</defs>
</svg>
