<?xml version="1.0" encoding="UTF-8" standalone="no"?>
<!DOCTYPE svg PUBLIC "-//W3C//DTD SVG 1.1//EN" "http://www.w3.org/Graphics/SVG/1.1/DTD/svg11.dtd">
<svg width="100%" height="100%" viewBox="0 0 100 100" version="1.1" xmlns="http://www.w3.org/2000/svg" xmlns:xlink="http://www.w3.org/1999/xlink" xml:space="preserve" xmlns:serif="http://www.serif.com/" style="fill-rule:evenodd;clip-rule:evenodd;stroke-linejoin:round;stroke-miterlimit:2;">
    <g transform="matrix(1,0,0,1,0,-1.97501)">
        <g transform="matrix(0.342241,0,0,0.342241,-400.005,-792.877)">
            <path d="M1364.99,2484.62L1364.99,2549.19L1347.09,2549.19L1347.09,2608.77L1282.66,2608.77L1282.66,2549.19L1264.76,2549.19L1264.76,2484.62C1264.76,2479.92 1265.56,2475.49 1266.96,2471.54C1270.44,2461.73 1277.71,2454.99 1286.12,2454.99L1343.63,2454.99C1352.04,2454.99 1359.32,2461.73 1362.79,2471.54C1364.19,2475.49 1364.99,2479.92 1364.99,2484.62Z" style="fill:rgb(239,114,122);fill-rule:nonzero;"/>
        </g>
        <g transform="matrix(0.342241,0,0,0.342241,-400.005,-792.877)">
            <path d="M1442.93,2608.77L1378.49,2608.77L1378.49,2549.19L1364.99,2549.19L1364.99,2484.62C1364.99,2479.92 1364.19,2475.49 1362.79,2471.54C1366.27,2461.73 1373.55,2454.99 1381.96,2454.99L1439.47,2454.99C1451.26,2454.99 1460.83,2468.26 1460.83,2484.62L1460.83,2549.19L1442.93,2549.19L1442.93,2608.77Z" style="fill:rgb(64,179,226);fill-rule:nonzero;"/>
        </g>
        <g transform="matrix(0.342241,0,0,0.342241,-400.005,-792.877)">
            <path d="M1266.96,2471.54C1265.56,2475.49 1264.76,2479.92 1264.76,2484.62L1264.76,2549.19L1251.26,2549.19L1251.26,2608.77L1186.82,2608.77L1186.82,2549.19L1168.93,2549.19L1168.93,2484.62C1168.93,2468.25 1178.49,2454.99 1190.28,2454.99L1247.8,2454.99C1256.21,2454.99 1263.48,2461.73 1266.96,2471.54Z" style="fill:rgb(64,179,226);fill-rule:nonzero;"/>
        </g>
        <g transform="matrix(0.342241,0,0,0.342241,-400.005,-792.877)">
            <path d="M1410.71,2380.33C1427.32,2380.33 1440.78,2393.67 1440.78,2410.14C1440.78,2426.59 1427.32,2439.93 1410.71,2439.93C1394.1,2439.93 1380.65,2426.59 1380.65,2410.14C1380.65,2393.67 1394.1,2380.33 1410.71,2380.33Z" style="fill:rgb(255,216,168);fill-rule:nonzero;"/>
        </g>
        <g transform="matrix(0.342241,0,0,0.342241,-400.005,-792.877)">
            <path d="M1314.88,2380.33C1331.48,2380.33 1344.94,2393.67 1344.94,2410.14C1344.94,2426.59 1331.48,2439.93 1314.88,2439.93C1298.27,2439.93 1284.81,2426.59 1284.81,2410.14C1284.81,2393.67 1298.27,2380.33 1314.88,2380.33Z" style="fill:rgb(255,216,168);fill-rule:nonzero;"/>
        </g>
        <g transform="matrix(0.342241,0,0,0.342241,-400.005,-792.877)">
            <path d="M1219.04,2380.33C1235.64,2380.33 1249.1,2393.67 1249.1,2410.14C1249.1,2426.59 1235.64,2439.93 1219.04,2439.93C1202.43,2439.93 1188.97,2426.59 1188.97,2410.14C1188.97,2393.67 1202.43,2380.33 1219.04,2380.33Z" style="fill:rgb(255,216,168);fill-rule:nonzero;"/>
        </g>
        <g transform="matrix(0.342241,0,0,0.342241,-400.005,-792.877)">
            <path d="M1225.38,2554.14C1225.38,2550.65 1222.54,2547.8 1219.04,2547.8C1215.53,2547.8 1212.69,2550.65 1212.69,2554.14L1212.69,2608.77L1225.38,2608.77L1225.38,2554.14Z" style="fill:rgb(47,147,178);fill-rule:nonzero;"/>
        </g>
        <g transform="matrix(0.342241,0,0,0.342241,-400.005,-792.877)">
            <path d="M1321.22,2554.14C1321.22,2550.65 1318.38,2547.8 1314.88,2547.8C1311.37,2547.8 1308.53,2550.65 1308.53,2554.14L1308.53,2608.77L1321.22,2608.77L1321.22,2554.14Z" style="fill:rgb(193,89,99);fill-rule:nonzero;"/>
        </g>
        <g transform="matrix(0.342241,0,0,0.342241,-400.005,-792.877)">
            <path d="M1417.06,2554.14C1417.06,2550.65 1414.22,2547.8 1410.71,2547.8C1407.21,2547.8 1404.36,2550.65 1404.36,2554.14L1404.36,2608.77L1417.06,2608.77L1417.06,2554.14Z" style="fill:rgb(47,147,178);fill-rule:nonzero;"/>
        </g>
        <g transform="matrix(36,0,0,36,44.0234,29.7871)">
        </g>
        <text x="23px" y="29.787px" style="font-family:'ArialMT', 'Arial', sans-serif;font-size:36px;fill:rgb(128,175,82);">+</text>
        <g transform="matrix(1,0,0,1,33,0)">
            <g transform="matrix(36,0,0,36,44.0234,29.7871)">
            </g>
            <text x="23px" y="29.787px" style="font-family:'ArialMT', 'Arial', sans-serif;font-size:36px;fill:rgb(128,175,82);">+</text>
        </g>
    </g>
</svg>
