<?xml version="1.0" encoding="UTF-8" standalone="no"?>
<!DOCTYPE svg PUBLIC "-//W3C//DTD SVG 1.1//EN" "http://www.w3.org/Graphics/SVG/1.1/DTD/svg11.dtd">
<svg width="100%" height="100%" viewBox="0 0 100 100" version="1.1" xmlns="http://www.w3.org/2000/svg" xmlns:xlink="http://www.w3.org/1999/xlink" xml:space="preserve" xmlns:serif="http://www.serif.com/" style="fill-rule:evenodd;clip-rule:evenodd;stroke-linejoin:round;stroke-miterlimit:2;">
    <g transform="matrix(1,0,0,1,-36.3189,-62)">
        <g transform="matrix(0.410018,0,0,0.410018,-965.33,-731.218)">
            <path d="M2621.05,1990.35L2621.05,2039.41L2599.69,2039.41L2599.69,1990.35C2599.69,1981.05 2595.85,1973.01 2589.87,1967.09C2583.89,1961.17 2575.35,1957.36 2566.38,1957.36C2548.01,1957.36 2533.06,1972.16 2533.06,1990.35L2533.06,2039.41L2511.7,2039.41L2511.7,1990.35C2511.7,1960.32 2536.05,1936.22 2566.38,1936.22C2581.33,1936.22 2595,1942.14 2605.25,1952.29C2615.07,1961.59 2621.05,1975.13 2621.05,1990.35Z" style="fill:rgb(214,232,247);fill-rule:nonzero;"/>
        </g>
        <g transform="matrix(0.410018,0,0,0.410018,-965.33,-731.218)">
            <path d="M2642.41,2042.37L2642.41,2057.6L2490.35,2057.6L2490.35,2042.37C2490.35,2037.72 2494.19,2033.91 2498.89,2033.91L2633.87,2033.91C2638.56,2033.91 2642.41,2037.72 2642.41,2042.37Z" style="fill:rgb(184,217,243);fill-rule:nonzero;"/>
        </g>
        <g transform="matrix(0.410018,0,0,0.410018,-965.33,-731.218)">
            <path d="M2468.99,2068.17C2468.99,2059.29 2476.25,2052.1 2485.22,2052.1L2647.96,2052.1C2656.93,2052.1 2664.19,2059.29 2664.19,2068.17L2664.19,2160.79C2664.19,2169.67 2656.93,2176.86 2647.96,2176.86L2485.22,2176.86C2476.25,2176.86 2468.99,2169.67 2468.99,2160.79L2468.99,2068.17Z" style="fill:rgb(115,126,230);fill-rule:nonzero;"/>
        </g>
        <g transform="matrix(0.410018,0,0,0.410018,-965.33,-731.218)">
            <path d="M2663.76,1978.51C2671.03,1978.51 2677.01,1984.43 2677.01,1991.62C2677.01,1998.81 2671.03,2004.73 2663.76,2004.73C2656.5,2004.73 2650.52,1998.81 2650.52,1991.62C2650.52,1984.43 2656.5,1978.51 2663.76,1978.51Z" style="fill:rgb(241,103,108);fill-rule:nonzero;"/>
        </g>
        <g transform="matrix(0.410018,0,0,0.410018,-965.33,-731.218)">
            <path d="M2460.88,1996.7C2469.84,1996.7 2477.11,2003.89 2477.11,2012.77C2477.11,2021.64 2469.84,2028.84 2460.88,2028.84C2451.91,2028.84 2444.65,2021.64 2444.65,2012.77C2444.65,2003.89 2451.91,1996.7 2460.88,1996.7Z" style="fill:rgb(241,103,108);fill-rule:nonzero;"/>
        </g>
        <g transform="matrix(0.410018,0,0,0.410018,-965.33,-731.218)">
            <path d="M2589.02,2097.36C2589.02,2106.66 2583.46,2114.69 2575.78,2118.5L2575.78,2131.61L2554.42,2131.61L2554.42,2118.5C2546.3,2114.69 2541.18,2106.66 2541.18,2097.36C2541.18,2084.24 2551.86,2073.67 2565.1,2073.67C2578.34,2073.67 2589.02,2084.24 2589.02,2097.36Z" style="fill:rgb(9,59,93);fill-rule:nonzero;"/>
        </g>
        <g transform="matrix(0.410018,0,0,0.410018,-965.33,-731.218)">
            <path d="M2681.28,2150.22C2683.4,2150.22 2685.12,2151.92 2685.12,2154.03C2685.12,2156.13 2683.4,2157.83 2681.28,2157.83C2679.15,2157.83 2677.43,2156.13 2677.43,2154.03C2677.43,2151.92 2679.15,2150.22 2681.28,2150.22Z" style="fill:rgb(254,249,229);fill-rule:nonzero;"/>
        </g>
        <g transform="matrix(0.410018,0,0,0.410018,-965.33,-731.218)">
            <path d="M2665.05,2033.91C2667.17,2033.91 2668.89,2035.62 2668.89,2037.72C2668.89,2039.82 2667.17,2041.53 2665.05,2041.53C2662.92,2041.53 2661.2,2039.82 2661.2,2037.72C2661.2,2035.62 2662.92,2033.91 2665.05,2033.91Z" style="fill:rgb(254,249,229);fill-rule:nonzero;"/>
        </g>
        <g transform="matrix(0.410018,0,0,0.410018,-965.33,-731.218)">
            <path d="M2633.01,1944.25C2635.13,1944.25 2636.86,1945.96 2636.86,1948.06C2636.86,1950.16 2635.13,1951.86 2633.01,1951.86C2630.89,1951.86 2629.17,1950.16 2629.17,1948.06C2629.17,1945.96 2630.89,1944.25 2633.01,1944.25Z" style="fill:rgb(254,249,229);fill-rule:nonzero;"/>
        </g>
        <g transform="matrix(0.410018,0,0,0.410018,-965.33,-731.218)">
            <path d="M2497.18,1944.25C2499.3,1944.25 2501.03,1945.96 2501.03,1948.06C2501.03,1950.16 2499.3,1951.86 2497.18,1951.86C2495.06,1951.86 2493.34,1950.16 2493.34,1948.06C2493.34,1945.96 2495.06,1944.25 2497.18,1944.25Z" style="fill:rgb(254,249,229);fill-rule:nonzero;"/>
        </g>
        <g transform="matrix(0.410018,0,0,0.410018,-965.33,-731.218)">
            <path d="M2457.03,1967.94C2459.16,1967.94 2460.88,1969.64 2460.88,1971.74C2460.88,1973.85 2459.16,1975.55 2457.03,1975.55C2454.91,1975.55 2453.19,1973.85 2453.19,1971.74C2453.19,1969.64 2454.91,1967.94 2457.03,1967.94Z" style="fill:rgb(254,249,229);fill-rule:nonzero;"/>
        </g>
        <g transform="matrix(0.410018,0,0,0.410018,-965.33,-731.218)">
            <path d="M2448.92,2068.6C2451.04,2068.6 2452.76,2070.3 2452.76,2072.4C2452.76,2074.5 2451.04,2076.21 2448.92,2076.21C2446.79,2076.21 2445.07,2074.5 2445.07,2072.4C2445.07,2070.3 2446.79,2068.6 2448.92,2068.6Z" style="fill:rgb(254,249,229);fill-rule:nonzero;"/>
        </g>
        <g transform="matrix(0.410018,0,0,0.410018,-965.33,-731.218)">
            <path d="M2535.63,2147.68L2468.99,2147.68L2468.99,2153.18L2535.63,2153.18C2536.91,2153.18 2538.19,2151.91 2538.19,2150.64C2538.62,2148.53 2537.33,2147.68 2535.63,2147.68Z" style="fill:rgb(16,71,124);fill-rule:nonzero;"/>
        </g>
        <g transform="matrix(0.410018,0,0,0.410018,-965.33,-731.218)">
            <path d="M2663.76,2147.68L2597.13,2147.68C2595.85,2147.68 2594.57,2148.95 2594.57,2150.22C2594.57,2151.49 2595.85,2152.76 2597.13,2152.76L2663.76,2152.76L2663.76,2147.68Z" style="fill:rgb(16,71,124);fill-rule:nonzero;"/>
        </g>
    </g>
</svg>
