<?xml version="1.0" encoding="UTF-8" standalone="no"?>
<!DOCTYPE svg PUBLIC "-//W3C//DTD SVG 1.1//EN" "http://www.w3.org/Graphics/SVG/1.1/DTD/svg11.dtd">
<svg width="100%" height="100%" viewBox="0 0 100 100" version="1.1" xmlns="http://www.w3.org/2000/svg" xmlns:xlink="http://www.w3.org/1999/xlink" xml:space="preserve" xmlns:serif="http://www.serif.com/" style="fill-rule:evenodd;clip-rule:evenodd;stroke-linejoin:round;stroke-miterlimit:2;">
    <g transform="matrix(0.41008,0,0,0.41008,-253.6,-1186.3)">
        <rect x="617.913" y="2892.9" width="244.864" height="244.86" style="fill:rgb(254,190,118);fill-rule:nonzero;"/>
    </g>
    <g transform="matrix(1,0,0,1,0.000212749,0)">
        <g transform="matrix(0.41008,0,0,0.41008,-253.6,-1186.3)">
            <path d="M791.894,2892.9L791.894,2957.33L772.566,2931.55L753.233,2957.33L753.233,2892.9L791.894,2892.9Z" style="fill:rgb(239,114,122);fill-rule:nonzero;"/>
        </g>
        <g transform="matrix(0.41008,0,0,0.41008,-253.6,-1186.3)">
            <path d="M727.46,2892.9L727.46,2957.33L708.127,2931.55L688.795,2957.33L688.795,2892.9L727.46,2892.9Z" style="fill:rgb(239,114,122);fill-rule:nonzero;"/>
        </g>
    </g>
    <g transform="matrix(0.41008,0,0,0.41008,-253.6,-1208.9)">
        <path d="M740.345,3092.65C765.255,3092.65 785.45,3112.85 785.45,3137.76C785.45,3162.67 765.255,3182.86 740.345,3182.86C715.435,3182.86 695.239,3162.67 695.239,3137.76C695.239,3112.85 715.435,3092.65 740.345,3092.65Z" style="fill:rgb(128,175,82);fill-rule:nonzero;"/>
    </g>
    <g transform="matrix(0.41008,0,0,0.41008,-253.601,-1208.9)">
        <path d="M733.509,3158.65C731.798,3158.65 730.162,3157.98 728.95,3156.76L715.282,3143.09C712.765,3140.57 712.77,3136.5 715.287,3133.98C717.803,3131.46 721.883,3131.46 724.4,3133.98L733.509,3143.1L756.294,3120.32C758.811,3117.8 762.89,3117.8 765.407,3120.32C767.924,3122.84 767.924,3126.91 765.407,3129.43L738.063,3156.77C736.855,3157.98 735.219,3158.65 733.509,3158.65Z" style="fill:white;fill-rule:nonzero;"/>
    </g>
    <g transform="matrix(0.41008,0,0,0.41008,-221.891,-1191.06)">
        <path d="M663.022,3034.65C659.459,3034.65 656.578,3031.78 656.578,3028.22L656.578,2989.55C656.578,2985.99 659.459,2983.11 663.022,2983.11C666.577,2983.11 669.462,2985.99 669.462,2989.55L669.462,3028.22C669.462,3031.78 666.577,3034.65 663.022,3034.65Z" style="fill:rgb(49,58,82);fill-rule:nonzero;"/>
    </g>
    <g transform="matrix(0.41008,0,0,0.41008,-227.176,-1191.06)">
        <path d="M708.127,2996L643.69,2996C640.131,2996 637.246,2993.11 637.246,2989.55C637.246,2985.99 640.131,2983.11 643.69,2983.11L708.127,2983.11C711.687,2983.11 714.572,2985.99 714.572,2989.55C714.572,2993.11 711.687,2996 708.127,2996Z" style="fill:rgb(45,44,46);fill-rule:nonzero;"/>
    </g>
    <g transform="matrix(0.41008,0,0,0.41008,-221.891,-1191.06)">
        <path d="M663.022,3034.65C661.373,3034.65 659.722,3034.03 658.464,3032.77L645.575,3019.88C643.058,3017.37 643.058,3013.28 645.575,3010.77C648.092,3008.25 652.171,3008.25 654.688,3010.77L663.022,3019.1L671.352,3010.77C673.869,3008.25 677.948,3008.25 680.465,3010.77C682.982,3013.28 682.982,3017.37 680.465,3019.88L667.577,3032.77C666.318,3034.03 664.668,3034.65 663.022,3034.65Z" style="fill:rgb(35,43,63);fill-rule:nonzero;"/>
    </g>
</svg>
