<svg width="94" height="106" viewBox="0 0 94 106" fill="none" xmlns="http://www.w3.org/2000/svg">
<g clip-path="url(#clip0_125_1)">
<path fill-rule="evenodd" clip-rule="evenodd" d="M38.7584 45.016C36.509 45.1641 31.8035 48.2001 29.686 45.3717C27.6923 42.7076 33.0314 39.8919 34.6536 39.2606C36.1062 38.6941 41.9974 36.5624 43.2354 38.0761C44.6861 39.8495 39.6388 44.2217 38.7584 45.016C37.6438 45.0895 40.7689 43.2017 38.7584 45.016ZM71.0534 66.7462C69.7602 68.9863 67.4815 70.7808 65.5918 72.4718C64.2009 73.7173 61.6412 77.0979 59.8588 77.2881C60.3665 75.0676 57.7324 59.7464 54.0102 62.6883C52.2831 64.0529 53.8903 70.6739 53.9976 72.6689C54.0944 74.4633 54.363 76.331 54.1433 78.0992C53.9423 79.7119 53.0008 80.8983 53.8921 82.58C55.3364 85.3074 59.5898 85.1723 62.0094 85.9427C65.2982 86.9902 68.9906 89.1589 72.4117 89.2708C75.4027 89.3684 77.3723 86.7507 74.8025 84.2295C72.7789 82.2427 69.0716 81.4368 66.5148 80.6492C70.6897 77.566 75.605 74.0457 77.8523 69.0573C80.0424 64.1973 79.5901 58.8927 78.2556 53.6571C75.0502 41.0871 64.2659 33.2998 52.4078 31.5494C50.1632 31.2179 47.2044 31.8827 45.2435 30.5988C44.1466 29.8811 43.2433 28.3371 42.1627 27.4803C40.9943 26.5543 39.6825 25.7485 38.3972 25.0249C33.1096 22.0437 26.897 20.9048 21.1115 20.9484C16.7896 20.9806 11.8435 22.137 8.16044 24.1767C6.16581 25.2811 3.88446 27.3932 3.38947 29.7735C3.27535 30.3237 2.98102 32.1917 3.55853 32.6854C4.62521 33.5973 4.44492 31.9583 4.73628 31.3723C7.59079 25.623 14.9955 24.6327 20.9081 24.7246C24.4359 24.7802 28.0055 25.4749 31.4174 26.6184C33.5721 27.3403 39.0716 29.1825 39.9586 31.4838C34.7192 31.195 28.0063 34.8842 25.3472 39.3143C20.8146 46.8628 28.6915 52.6419 35.6502 51.4924C39.4725 50.8605 43.7001 48.7508 45.9807 45.5174C46.9541 44.138 47.6875 42.4342 48.0718 40.7478C48.5516 38.6462 47.8631 38.0292 50.2448 38.2172C57.748 38.8104 65.2135 43.1118 69.1762 49.9756C72.0641 54.9775 74.0073 61.6274 71.0534 66.7462Z" fill="#8268AE"/>
</g>
<defs>
<clipPath id="clip0_125_1">
<rect width="56" height="90" fill="white" transform="matrix(-0.866025 0.5 0.5 0.866025 48.4973 0)"/>
</clipPath>
</defs>
</svg>
