<svg width="496" height="552" viewBox="0 0 496 552" fill="none" xmlns="http://www.w3.org/2000/svg">
<g clip-path="url(#clip0_301_19)">
<rect x="0.5" y="0.5" width="495" height="303" rx="3.5" fill="white" stroke="#E8E8E8"/>
<rect x="16.5" y="16.5" width="15" height="15" rx="3.5" fill="white" stroke="#DADADA"/>
<line y1="47.5" x2="496" y2="47.5" stroke="#E8E8E8"/>
<rect x="48" y="16" width="96" height="16" rx="4" fill="#D9D9D9"/>
<rect x="160" y="16" width="96" height="16" rx="4" fill="#D9D9D9"/>
<rect x="272" y="16" width="96" height="16" rx="4" fill="#D9D9D9"/>
<rect x="384" y="16" width="96" height="16" rx="4" fill="#D9D9D9"/>
<rect x="16.5" y="56.5" width="15" height="15" rx="3.5" fill="white" stroke="#DADADA"/>
<line y1="79.5" x2="496" y2="79.5" stroke="#E8E8E8"/>
<rect x="48" y="60" width="96" height="8" rx="4" fill="#1780A9"/>
<rect x="160" y="60" width="96" height="8" rx="4" fill="#D9D9D9"/>
<rect x="272" y="60" width="96" height="8" rx="4" fill="#D9D9D9"/>
<rect x="384" y="60" width="96" height="8" rx="4" fill="#D9D9D9"/>
<rect x="16.5" y="88.5" width="15" height="15" rx="3.5" fill="white" stroke="#DADADA"/>
<line y1="111.5" x2="496" y2="111.5" stroke="#E8E8E8"/>
<rect x="48" y="92" width="96" height="8" rx="4" fill="#1780A9"/>
<rect x="160" y="92" width="96" height="8" rx="4" fill="#D9D9D9"/>
<rect x="272" y="92" width="96" height="8" rx="4" fill="#D9D9D9"/>
<rect x="384" y="92" width="96" height="8" rx="4" fill="#D9D9D9"/>
<rect x="16.5" y="120.5" width="15" height="15" rx="3.5" fill="white" stroke="#DADADA"/>
<line y1="143.5" x2="496" y2="143.5" stroke="#E8E8E8"/>
<rect x="48" y="124" width="96" height="8" rx="4" fill="#1780A9"/>
<rect x="160" y="124" width="96" height="8" rx="4" fill="#D9D9D9"/>
<rect x="272" y="124" width="96" height="8" rx="4" fill="#D9D9D9"/>
<rect x="384" y="124" width="96" height="8" rx="4" fill="#D9D9D9"/>
<rect x="16.5" y="152.5" width="15" height="15" rx="3.5" fill="white" stroke="#DADADA"/>
<line y1="175.5" x2="496" y2="175.5" stroke="#E8E8E8"/>
<rect x="48" y="156" width="96" height="8" rx="4" fill="#1780A9"/>
<rect x="160" y="156" width="96" height="8" rx="4" fill="#D9D9D9"/>
<rect x="272" y="156" width="96" height="8" rx="4" fill="#D9D9D9"/>
<rect x="384" y="156" width="96" height="8" rx="4" fill="#D9D9D9"/>
<rect x="16.5" y="184.5" width="15" height="15" rx="3.5" fill="white" stroke="#DADADA"/>
<line y1="207.5" x2="496" y2="207.5" stroke="#E8E8E8"/>
<rect x="48" y="188" width="96" height="8" rx="4" fill="#1780A9"/>
<rect x="160" y="188" width="96" height="8" rx="4" fill="#D9D9D9"/>
<rect x="272" y="188" width="96" height="8" rx="4" fill="#D9D9D9"/>
<rect x="384" y="188" width="96" height="8" rx="4" fill="#D9D9D9"/>
<rect x="16.5" y="216.5" width="15" height="15" rx="3.5" fill="white" stroke="#DADADA"/>
<line y1="239.5" x2="496" y2="239.5" stroke="#E8E8E8"/>
<rect x="48" y="220" width="96" height="8" rx="4" fill="#1780A9"/>
<rect x="160" y="220" width="96" height="8" rx="4" fill="#D9D9D9"/>
<rect x="272" y="220" width="96" height="8" rx="4" fill="#D9D9D9"/>
<rect x="384" y="220" width="96" height="8" rx="4" fill="#D9D9D9"/>
<rect x="16.5" y="248.5" width="15" height="15" rx="3.5" fill="white" stroke="#DADADA"/>
<line y1="271.5" x2="496" y2="271.5" stroke="#E8E8E8"/>
<rect x="48" y="252" width="96" height="8" rx="4" fill="#1780A9"/>
<rect x="272" y="252" width="96" height="8" rx="4" fill="#D9D9D9"/>
<rect x="160" y="252" width="96" height="8" rx="4" fill="#D9D9D9"/>
<rect x="384" y="252" width="96" height="8" rx="4" fill="#D9D9D9"/>
<rect x="16.5" y="280.5" width="15" height="15" rx="3.5" fill="white" stroke="#DADADA"/>
<rect x="48" y="284" width="96" height="8" rx="4" fill="#1780A9"/>
<rect x="160" y="284" width="96" height="8" rx="4" fill="#D9D9D9"/>
<rect x="272" y="284" width="96" height="8" rx="4" fill="#D9D9D9"/>
<rect x="384" y="284" width="96" height="8" rx="4" fill="#D9D9D9"/>
<rect x="0.5" y="328.5" width="199" height="27" rx="3.5" fill="white" stroke="#E8E8E8"/>
<rect x="0.5" y="360.5" width="199" height="191" rx="3.5" fill="white" stroke="#E8E8E8"/>
<rect x="16" y="338" width="96" height="8" rx="4" fill="#D9D9D9"/>
<rect x="52" y="384" width="96" height="8" rx="4" fill="#1780A9"/>
<path d="M172.017 335V338.5H184.267V335H172.017ZM172.017 340.25V348.842C172.017 348.93 172.087 349 172.175 349H184.092C184.18 349 184.25 348.93 184.25 348.842V340.25H172H172.017ZM173.767 342H175.517V343.75H173.767V342ZM177.267 342H179.017V343.75H177.267V342ZM180.767 342H182.517V343.75H180.767V342ZM173.767 345.5H175.517V347.25H173.767V345.5ZM177.267 345.5H179.017V347.25H177.267V345.5Z" fill="#1C1C1C"/>
<rect x="16.5" y="376.5" width="23" height="23" rx="3.5" fill="white" stroke="#DADADA"/>
<rect x="16.5" y="416.5" width="167" height="119" rx="3.5" fill="white" stroke="#DADADA"/>
<rect x="160.5" y="376.5" width="23" height="23" rx="3.5" fill="white" stroke="#DADADA"/>
<path d="M29.125 384L30.6719 385.547L28.0938 388.125L30.6719 390.703L29.125 392.25L25 388.125L29.125 384Z" fill="black"/>
<path d="M170.547 384L174.672 388.125L170.547 392.25L169 390.703L171.578 388.125L169 385.547L170.547 384Z" fill="black"/>
<line x1="40.5" y1="416" x2="40.5" y2="536" stroke="#E8E8E8"/>
<line x1="64.5" y1="416" x2="64.5" y2="536" stroke="#E8E8E8"/>
<line x1="88.5" y1="416" x2="88.5" y2="536" stroke="#E8E8E8"/>
<line x1="112.5" y1="416" x2="112.5" y2="536" stroke="#E8E8E8"/>
<line x1="136.5" y1="416" x2="136.5" y2="536" stroke="#E8E8E8"/>
<line x1="160.5" y1="416" x2="160.5" y2="536" stroke="#E8E8E8"/>
<line x1="16" y1="439.5" x2="184" y2="439.5" stroke="#E8E8E8"/>
<line x1="16" y1="463.5" x2="184" y2="463.5" stroke="#E8E8E8"/>
<line x1="16" y1="487.5" x2="184" y2="487.5" stroke="#E8E8E8"/>
<line x1="16" y1="511.5" x2="184" y2="511.5" stroke="#E8E8E8"/>
<rect x="228.5" y="328.5" width="267" height="27" rx="3.5" fill="white" stroke="#E8E8E8"/>
<rect x="228.5" y="360.5" width="267" height="191" rx="3.5" fill="white" stroke="#E8E8E8"/>
<rect x="244" y="338" width="130" height="8" rx="4" fill="#D9D9D9"/>
<rect x="244" y="376" width="130" height="8" rx="4" fill="#D9D9D9"/>
<rect x="244" y="376" width="130" height="8" rx="4" fill="#D9D9D9"/>
<line x1="228" y1="399.5" x2="496" y2="399.5" stroke="#E8E8E8"/>
<rect x="244" y="416" width="130" height="8" rx="4" fill="#1780A9"/>
<line x1="228" y1="439.5" x2="496" y2="439.5" stroke="#E8E8E8"/>
<rect x="244" y="456" width="130" height="8" rx="4" fill="#D9D9D9"/>
<line x1="228" y1="479.5" x2="496" y2="479.5" stroke="#E8E8E8"/>
<rect x="244" y="496" width="130" height="8" rx="4" fill="#D9D9D9"/>
<line x1="228" y1="519.5" x2="496" y2="519.5" stroke="#E8E8E8"/>
<path d="M477.961 340.836L473.836 344.961L469.711 340.836L471.258 339.289L473.836 341.867L476.414 339.289L477.961 340.836Z" fill="black"/>
</g>
<defs>
<clipPath id="clip0_301_19">
<rect width="496" height="552" fill="white"/>
</clipPath>
</defs>
</svg>
