<svg xmlns="http://www.w3.org/2000/svg" viewBox="0 0 345454 241669" shape-rendering="geometricPrecision" text-rendering="geometricPrecision" image-rendering="optimizeQuality" fill-rule="evenodd" clip-rule="evenodd"><path d="M333333 170681c0-12136-3661-23402-9951-32766-6496-9671-15787-17340-26739-21874-2480-1019-3918-3500-3728-6036l-12-1 28-369c130-1672 251-3247 251-5090 0-25535-10415-48645-27263-65364s-40148-27060-65919-27060c-18226 0-35222 5212-49551 14222-14821 9319-26816 22683-34398 38533-1438 3007-5043 4279-8050 2841-402-193-774-424-1112-688l-1 1c-3371-2644-7193-4724-11343-6138-4029-1372-8389-2106-12970-2106-10942 0-20867 4411-28043 11550-7147 7112-11579 16949-11579 27843 0 2097 151 4063 439 5889 306 1944 770 3869 1375 5750 879 2739-301 5646-2679 7049l4 6c-9144 5416-16756 13105-22017 22248-5059 8792-7954 18974-7954 29816 0 16626 6693 31658 17531 42583 10876 10963 25911 17819 42544 18045v-22h201515c189 0 376 9 560 26h3v-24c16312 0 31012-6493 41654-17025 10665-10555 17291-25151 17426-41330-14-169-22-339-22-511zm-152486-20805c594 611 1033 1316 1318 2065 12535 12887 26307 25861 39956 25861 8277 0 15763-3112 21158-8142 5271-4913 8539-11679 8539-19131 0-7473-3248-14252-8519-19166-5373-5009-12846-8107-21178-8107-13855 0-21410 8197-25900 13068-346 375-677 734-1212 1302-2288 2432-6115 2548-8546 261-2432-2288-2548-6115-261-8546 198-211 644-694 1118-1207 5840-6336 15668-16998 34801-16998 11492 0 21878 4346 29417 11374 7674 7153 12402 17061 12402 28020 0 10944-4753 20837-12421 27985-7561 7048-17966 11409-29397 11409-20159 0-37267-17755-52491-33556-1732-1798-3441-3572-5000-5161-630-640-1087-1385-1374-2178-12529-12920-26278-25772-39924-25772-8278 0-15763 3112-21158 8141-5271 4913-8539 11679-8539 19131 0 7473 3248 14252 8519 19166 5373 5009 12847 8107 21178 8107 13807 0 21362-8211 25857-13097 367-398 702-763 1254-1349 2288-2432 6115-2548 8546-261 2432 2288 2548 6115 261 8546-207 220-676 730-1160 1255-5844 6352-15667 17027-34759 17027-11491 0-21878-4346-29417-11374-7674-7154-12402-17062-12402-28020 0-10944 4753-20837 12421-27985 7561-7048 17966-11408 29397-11408 20381 0 37658 18035 53005 34054 1555 1624 3088 3223 4509 4686zm152572-18685c7607 11325 12035 24905 12035 39490h-23v24l-2 556v24c-163 19512-8138 37101-20977 49807-12862 12729-30573 20576-50177 20576v-24h-55c-167 14-337 21-508 21H72197v-24h-71c-19969-248-38009-8458-51043-21597C8048 206905 0 188862 0 168938c0-12966 3499-25205 9612-35830 5548-9643 13242-17919 22419-24167-218-994-408-2003-569-3026-411-2617-628-5206-628-7735 0-14226 5809-27091 15177-36413 9382-9335 22325-15102 36565-15102 5887 0 11554 965 16853 2769 3126 1065 6118 2426 8946 4057 8580-15228 20869-28091 35636-37377C160247 5904 179455-2 200001-2c29068 0 55383 11698 74442 30611 19072 18926 30861 45067 30861 73934 0 737-17 1444-46 2134 11439 5580 21154 14078 28163 24512z" fill="#0084ff" fill-rule="nonzero"/></svg>