<?xml version="1.0" encoding="UTF-8" standalone="no"?><!DOCTYPE svg PUBLIC "-//W3C//DTD SVG 1.1//EN" "http://www.w3.org/Graphics/SVG/1.1/DTD/svg11.dtd"><svg width="100%" height="100%" viewBox="0 0 256 319" version="1.1" xmlns="http://www.w3.org/2000/svg" xmlns:xlink="http://www.w3.org/1999/xlink" xml:space="preserve" xmlns:serif="http://www.serif.com/" style="fill-rule:evenodd;clip-rule:evenodd;stroke-linejoin:round;stroke-miterlimit:2;"><g><path id="path-1" d="M220.923,1.13l-30.758,1.922l-1.5,36.075c-0.023,0.555 0.148,1.1 0.484,1.542c0.796,1.051 2.294,1.256 3.345,0.459l14.013,-10.63l11.835,9.324c0.444,0.35 0.997,0.53 1.561,0.511c1.318,-0.046 2.349,-1.152 2.303,-2.47l-1.283,-36.733l17.571,-1.098c8.822,-0.552 16.421,6.153 16.972,14.975c0.021,0.332 0.031,0.665 0.031,0.998l0,286.314c0,8.839 -7.165,16.004 -16.004,16.004c-0.24,0 -0.479,-0.005 -0.718,-0.016l-213.627,-9.595c-8.32,-0.373 -14.963,-7.065 -15.276,-15.388l-9.861,-262.751c-0.325,-8.677 6.328,-16.032 14.995,-16.573l175.159,-10.948l0.027,-0.641l30.692,-2.411l0.039,1.13Zm-71.509,118.85c-0,6.227 41.942,3.243 47.572,-1.131c0,-42.402 -22.752,-64.684 -64.415,-64.684c-41.662,0 -65.005,22.628 -65.005,56.571c-0,59.116 79.779,60.248 79.779,92.493c0,9.052 -4.432,14.426 -14.183,14.426c-12.705,-0 -17.729,-6.489 -17.138,-28.552c0,-4.786 -48.458,-6.278 -49.936,0c-3.762,53.466 29.548,68.887 67.665,68.887c36.935,0 65.892,-19.687 65.892,-55.326c0,-63.36 -80.961,-61.663 -80.961,-93.059c-0,-12.729 9.455,-14.426 15.069,-14.426c5.91,-0 16.547,1.042 15.661,24.801Z" style="fill:#fff;fill-rule:nonzero;"/></g></svg>