<?xml version="1.0" encoding="UTF-8" standalone="no"?><!DOCTYPE svg PUBLIC "-//W3C//DTD SVG 1.1//EN" "http://www.w3.org/Graphics/SVG/1.1/DTD/svg11.dtd"><svg width="100%" height="100%" viewBox="0 0 303 199" version="1.1" xmlns="http://www.w3.org/2000/svg" xmlns:xlink="http://www.w3.org/1999/xlink" xml:space="preserve" xmlns:serif="http://www.serif.com/" style="fill-rule:evenodd;clip-rule:evenodd;stroke-linejoin:round;stroke-miterlimit:2;"><path id="path1471" d="M117.029,0.13c-0.99,0.54 -1.619,1.74 -2.279,2.62c-9.64,14.79 -19.41,29.501 -29.13,44.241c-10.24,-4.28 -20.17,-9.311 -30.47,-13.461c-0.03,19.67 0.871,39.35 1.181,59c1.27,-0.41 2.519,-0.9 3.789,-1.33l-2.391,0.671c-0.16,-18.74 -0.859,-37.481 -1.189,-56.221c9.53,4.5 19.32,8.471 28.79,13.121c0.08,8.04 0.32,16.098 0.87,24.128c0.79,5.29 -0.381,11.271 1.579,16.231c0.69,-13.18 -1.029,-26.43 -0.769,-39.59c4.54,1.03 8.64,3.129 13.1,4.379c5.5,1.55 10.69,3.822 16.07,5.702c10.45,3.57 20.94,7.018 31.3,10.858c8.85,3.01 17.529,6.572 26.439,9.392c2.36,0.68 4.631,1.519 6.931,2.349c0.11,24.12 0.03,48.241 0.03,72.361l0,1.218c0.06,3.23 0.14,6.471 0.11,9.701c-0.01,2.94 -0.03,5.879 -0.06,8.819c-2.91,-1.46 -5.78,-2.959 -8.6,-4.589c-0.56,-0.01 -1.08,-0.12 -1.56,-0.33l-0.06,0.63l0.149,0.56c2.91,1.69 5.74,3.46 8.54,5.33c-21.5,5.96 -43.139,11.47 -64.599,17.62c-2.13,-1.6 -4.201,-3.249 -6.361,-4.799c-1.2,-0.76 -2.458,-1.452 -3.698,-2.132l0.63,1.481c2.64,2.15 5.279,4.48 8.229,6.2c1.2,0.79 3.14,0.07 4.44,-0.17c21.3,-5.72 42.53,-11.71 63.85,-17.36c1.56,0.47 3.13,0.939 4.69,1.369l0.76,1.092c3.61,0.68 7.15,1.89 10.66,2.94c10.21,2.66 20.27,5.979 30.48,8.619c0.62,-7.15 0.16,-14.4 0.33,-21.58c0.02,-1.32 0.04,-2.64 0.06,-3.97c13.98,-3.54 27.981,-6.981 41.961,-10.521c8.93,-2.15 17.829,-4.399 26.739,-6.599c-0.08,-10.37 0.74,-20.75 0.98,-31.11c0.31,-13.22 1.241,-26.32 1.301,-39.56c0.4,-4.35 0.55,-8.719 0.69,-13.089c-9.75,-3.4 -19.742,-6.132 -29.582,-9.282c-20.6,-6.33 -41.189,-12.71 -61.819,-18.98c0.87,-1.71 1.721,-3.41 2.561,-5.13c-27.04,-8.77 -54.001,-17.778 -81.021,-26.608c-4.52,-1.42 -9.001,-3.261 -13.651,-4.221Zm181.672,65.3c0.12,2.86 0.078,5.72 -0.052,8.58c-0.664,15.809 -1.18,31.631 -1.769,47.452c-0.315,8.457 -0.65,16.914 -1.04,25.368c-22.32,5.64 -44.649,11.209 -67.009,16.699c-0.07,-26.11 0.028,-52.219 -0.052,-78.319c-12.98,-1.39 -25.999,-2.13 -38.979,-3.62c5.37,-1.14 10.78,-1.77 16.2,-2.56c28.67,-4.1 57.329,-8.29 86.009,-12.38c1.61,-0.25 3.221,-0.58 4.821,-0.92l1.871,-0.3Zm-116.151,17.091c12.14,1.17 24.279,2.329 36.429,3.249c2.7,0.23 5.592,0.289 8.182,1.089c0.27,25.57 -0.021,51.441 0.139,77.051c-0.02,8.16 0.02,16.329 -0.04,24.489c-13,-3.62 -25.901,-7.579 -38.921,-11.109c-1.98,-0.6 -3.939,-1.26 -5.899,-1.92c0.21,-30.95 -0.01,-61.899 0.11,-92.849Z" style="fill:#4e300e;fill-rule:nonzero;"/><path id="path1473" d="M117.3,1.97c-1.73,2.06 -3.109,4.461 -4.599,6.711c-8.53,13.03 -17.161,25.99 -25.641,39.06c31.52,10.91 62.92,22.169 94.43,33.079c9.3,-16.34 18.771,-32.58 28.191,-48.85c-29.22,-9.73 -58.521,-19.16 -87.721,-28.92c-1.49,-0.47 -3.1,-1.04 -4.66,-1.08Zm-60.76,33.68c0.33,18.74 1.029,37.481 1.189,56.221l2.391,-0.671c8.69,-2.81 17.45,-2.789 26.46,-2.039c-0.08,-5.42 -0.23,-10.842 -0.38,-16.262c-0.55,-8.03 -0.79,-16.088 -0.87,-24.128c-9.47,-4.65 -19.26,-8.621 -28.79,-13.121Zm151.74,2.04c-8.55,14.14 -16.68,28.64 -24.93,42.97c37.58,-5.17 75.129,-10.89 112.699,-16.1c-16.88,-5.65 -34.029,-10.52 -51.019,-15.85c-12.25,-3.54 -24.39,-7.99 -36.75,-11.02Zm90.421,27.74l-1.871,0.3c-1.6,0.34 -3.211,0.67 -4.821,0.92c-28.68,4.09 -57.339,8.28 -86.009,12.38c-5.42,0.79 -10.83,1.42 -16.2,2.56c12.98,1.49 25.999,2.23 38.979,3.62c0.08,26.1 -0.018,52.209 0.052,78.319c22.36,-5.49 44.689,-11.059 67.009,-16.699c1.12,-24.27 1.789,-48.56 2.809,-72.82c0.13,-2.86 0.172,-5.72 0.052,-8.58Zm-116.151,17.091c-0.12,30.95 0.1,61.899 -0.11,92.849c1.96,0.66 3.919,1.32 5.899,1.92c13.02,3.53 25.921,7.489 38.921,11.109c0.06,-8.16 0.02,-16.329 0.04,-24.489c-0.16,-25.61 0.131,-51.481 -0.139,-77.051c-2.59,-0.8 -5.482,-0.859 -8.182,-1.089c-12.15,-0.92 -24.289,-2.079 -36.429,-3.249Zm-1.56,82.979c-2.98,1.22 -5.84,2.66 -8.66,4.23c2.82,1.63 5.69,3.129 8.6,4.589c0.03,-2.94 0.05,-5.879 0.06,-8.819Zm-10.131,5.09c-3.5,0.65 -6.679,2.009 -9.949,3.329c-17.17,6.29 -34.741,10.512 -52.471,14.822c2.16,1.55 4.231,3.199 6.361,4.799c21.46,-6.15 43.099,-11.66 64.599,-17.62c-2.8,-1.87 -5.63,-3.64 -8.54,-5.33Z" style="fill:#cdaf7d;fill-rule:nonzero;"/><path id="path1475" d="M25.238,34.582c-2.249,-0.057 -4.516,0.198 -6.728,0.788c-10.5,2.61 -18.25,12.82 -17.94,23.63c-0.06,10.19 6.95,19.63 16.62,22.7c5.29,1.79 10.57,1.25 15.88,-0.07c2.79,2.51 5.511,5.01 8.841,6.8c-0.11,-3.75 -1.291,-7.559 -1.111,-11.269c2.05,-2.82 4.48,-5.051 5.87,-8.341c3.89,-8.4 2.46,-18.86 -3.65,-25.84c-4.455,-5.235 -11.036,-8.225 -17.782,-8.398Zm60.962,38.317c0.15,5.42 0.3,10.842 0.38,16.262c-9.01,-0.75 -17.77,-0.771 -26.46,2.039c-1.27,0.43 -2.519,0.92 -3.789,1.33c-10.78,2.81 -23.361,1.631 -34.361,1.011c-1.96,-0.21 -2.97,1.049 -4.5,2.009c2.8,10.1 7.89,18.98 15.06,26.6c-0.63,7.76 -0.31,15.011 -3.93,22.161c-4.8,1.07 -10.221,0.47 -13.801,4.5c-2.76,3.32 -1.438,6.849 0.512,10.139c5.92,1.47 11.57,2.42 17.71,2.25c3.41,-0.17 5.439,1.83 8.279,3.32c0.72,0.35 1.43,0.71 2.15,1.06c-3.86,0.68 -8.01,0.941 -10.56,4.351c-1.41,1.83 -1.211,3.799 -1.011,5.969c4.22,4 9.482,6.04 15.112,7.17c17.64,3.7 36.198,4.749 54.058,2.039c1.45,0.98 2.902,1.951 4.322,2.981l-0.63,-1.481c-0.25,-0.62 -0.511,-1.23 -0.761,-1.85c14.99,-2.88 29.47,-7.559 43.7,-13.019c4.79,-1.81 9.41,-4.14 14.27,-5.75c2.93,1.2 5.69,3.58 8.76,4.04l0.06,-0.63c-1.86,-1.9 -4.22,-3.17 -6.24,-4.93c5.72,-2.91 11.28,-4.611 16.35,-8.671l0,-1.218c-3.52,1.94 -7.041,3.899 -10.651,5.689c-17.24,8.57 -35.5,15.191 -54.06,20.271c-13.71,3.56 -28.029,5.179 -42.189,4.539c-8.36,-0.57 -16.77,-1.38 -24.99,-3.05c-4.6,-1.04 -10,-2.31 -13.8,-5.22c-1.88,-1.35 -2.74,-3.9 -1.22,-5.85c2.01,-2.78 5.78,-3.469 9,-3.399c5.37,0.21 10.63,1.129 16.03,0.829c19.65,-0.73 39.64,-4.17 59.02,-7.47c1.65,-0.3 3.11,-0.42 4.39,-1.58c-1.84,-0.92 -3.45,-0.23 -5.41,-0.04c-16.62,2.67 -33.77,5.96 -51,6.93c-6.61,0.22 -12.58,0.98 -19,-1.18c-7.88,-2.52 -14.88,-7.031 -17.23,-15.421c2.25,-0.08 4.49,-0.15 6.74,-0.35c-2.32,-0.7 -4.651,-0.769 -7.051,-0.739c0.39,-0.86 0.79,-1.72 1.21,-2.57c2.33,0.56 4.571,1.399 6.881,2.039c-2.2,-1.74 -4.561,-2.549 -7.291,-3.099c1.14,-4.14 3.011,-7.531 3.031,-11.901c0.34,-9.17 1.66,-18.938 7.03,-26.658c3.1,-4.81 8.519,-7.6 13.249,-10.73c8.88,-5.09 20.451,-5.771 30.441,-5.091c7.52,0.27 15.081,3.76 19.571,9.91c1.99,2.72 2.53,5.62 5.19,7.8c-1.12,-6.1 -4.911,-10.61 -9.581,-14.43c7.77,-1.5 15.12,-4.17 22.3,-7.44c1.96,-0.92 4.02,-1.44 6.13,-1.87c0.11,1.47 0.23,2.94 0.34,4.41c-1.05,-0.21 -2.09,-0.419 -3.13,-0.619c-5.74,7.71 -9.72,16.749 -15.74,24.249c2.59,6.62 4.65,13.3 4.92,20.46c0.34,3.25 -0.41,6.04 1.91,8.68c-0.1,-3.93 -0.359,-7.849 -0.449,-11.789c6.38,-9.34 10.819,-20.121 13.109,-31.191c1.82,-0.73 3.65,-1.48 5.48,-2.19c8.56,-4.35 17.27,-8.24 25.57,-13.08c-5.53,0.7 -9.26,3.76 -14.24,5.99c-5.51,2.53 -10.77,5.44 -16.44,7.6c-0.08,-4.42 -0.1,-8.84 -0.07,-13.26c-2.25,-0.16 -4.319,-0.44 -6.429,0.6c-6.82,2.92 -13.181,5.97 -20.511,7.59c-4.49,1.5 -9.871,-1.43 -14.161,-2.82c-1.96,-4.96 -0.789,-10.941 -1.579,-16.231Z" style="fill:#857a78;fill-rule:nonzero;"/><path id="path1479" d="M24.617,36.453c-1.21,0.007 -2.429,0.121 -3.646,0.347c-11.02,1.75 -19.212,12.09 -18.462,23.2c0.51,10.13 8.44,19.06 18.47,20.64c2.564,0.458 5.028,0.332 7.478,-0.074c1.669,-0.277 3.331,-0.684 5.013,-1.126c2.04,1.77 4.081,3.55 6.131,5.31c-0.33,-2.63 -0.831,-5.25 -1.011,-7.89c1.67,-2.71 4.211,-4.801 5.741,-7.651c3.21,-6.1 3.389,-13.738 0.429,-19.968c-3.684,-7.727 -11.677,-12.843 -20.143,-12.788Z" style="fill:#fff;fill-rule:nonzero;stroke:#cfcfcf;stroke-width:1px;"/><path id="path14791" serif:id="path1479" d="M127.62,84.5c-2.11,0.43 -4.17,0.95 -6.13,1.87c-7.18,3.27 -14.53,5.94 -22.3,7.44c4.67,3.82 8.461,8.33 9.581,14.43c-2.66,-2.18 -3.2,-5.08 -5.19,-7.8c-4.49,-6.15 -12.051,-9.64 -19.571,-9.91c-9.99,-0.68 -21.561,0.001 -30.441,5.091c-4.73,3.13 -10.149,5.92 -13.249,10.73c-5.37,7.72 -6.69,17.488 -7.03,26.658c-0.02,4.37 -1.891,7.761 -3.031,11.901c2.73,0.55 5.091,1.359 7.291,3.099c-2.31,-0.64 -4.551,-1.479 -6.881,-2.039c-0.42,0.85 -0.82,1.71 -1.21,2.57c2.4,-0.03 4.731,0.039 7.051,0.739c-2.25,0.2 -4.49,0.27 -6.74,0.35c2.35,8.39 9.35,12.901 17.23,15.421c6.42,2.16 12.39,1.4 19,1.18c17.23,-0.97 34.38,-4.26 51,-6.93c1.96,-0.19 3.57,-0.88 5.41,0.04c-1.28,1.16 -2.74,1.28 -4.39,1.58c-19.38,3.3 -39.37,6.74 -59.02,7.47c-5.4,0.3 -10.66,-0.619 -16.03,-0.829c-3.22,-0.07 -6.99,0.619 -9,3.399c-1.52,1.95 -0.66,4.5 1.22,5.85c3.8,2.91 9.2,4.18 13.8,5.22c8.22,1.67 16.63,2.48 24.99,3.05c14.16,0.64 28.479,-0.979 42.189,-4.539c18.56,-5.08 36.82,-11.701 54.06,-20.271c0.89,-9.81 0.742,-19.61 -1.108,-29.3c-1.39,-6.85 -2.8,-13.271 -7.21,-18.901c-6.63,-8.43 -17.491,-13.599 -27.851,-15.559c-1.83,0.71 -3.66,1.46 -5.48,2.19c-2.29,11.07 -6.729,21.851 -13.109,31.191c0.09,3.94 0.349,7.859 0.449,11.789c-2.32,-2.64 -1.57,-5.43 -1.91,-8.68c-0.27,-7.16 -2.33,-13.84 -4.92,-20.46c6.02,-7.5 10,-16.539 15.74,-24.249c1.04,0.2 2.08,0.409 3.13,0.619c-0.11,-1.47 -0.23,-2.94 -0.34,-4.41Zm-104.83,10.63c-1.13,0.08 -2.259,0.21 -3.379,0.37c0.15,1.38 0.319,2.76 0.509,4.13c1.81,-0.42 3.14,-1.87 4.78,-0.39c4.19,3.02 7.971,6.6 12.071,9.75c2.72,-4.62 5.999,-8.441 10.589,-11.281c1.94,-0.32 3.49,-0.819 5.19,-1.839c-3.93,-0.85 -7.6,-0.25 -11.55,-0.2c-6.09,0.2 -12.13,-0.24 -18.21,-0.54Zm5.52,50.73c-3.64,0.63 -8.389,0.731 -11.439,2.951c-2.73,2.07 -3.112,6.429 -0.052,8.389c4.85,2.67 11.621,2.32 17.001,2.72c-3.3,-4.29 -6.02,-8.37 -5.51,-14.06Z" style="fill:#141414;fill-rule:nonzero;stroke:#000;stroke-width:1px;"/><path id="path1485" d="M87.01,49.54c-0.26,13.16 1.459,26.41 0.769,39.59c4.29,1.39 9.671,4.32 14.161,2.82c7.33,-1.62 13.691,-4.67 20.511,-7.59c2.11,-1.04 4.179,-0.76 6.429,-0.6c-0.03,4.42 -0.01,8.84 0.07,13.26c5.67,-2.16 10.93,-5.07 16.44,-7.6c4.98,-2.23 8.71,-5.29 14.24,-5.99c4.88,-1.73 8.909,-4.229 14.289,-3.559c-8.91,-2.82 -17.589,-6.382 -26.439,-9.392c-10.36,-3.84 -20.85,-7.288 -31.3,-10.858c-5.38,-1.88 -10.57,-4.152 -16.07,-5.702c-4.46,-1.25 -8.56,-3.349 -13.1,-4.379Zm210.56,98.57c-8.91,2.2 -17.809,4.449 -26.739,6.599c-13.98,3.54 -27.981,6.981 -41.961,10.521c-0.02,1.33 -0.04,2.65 -0.06,3.97c13.1,-3.12 26.06,-6.779 39.11,-10.119c6.09,-1.62 12.189,-3.211 18.269,-4.871c5.5,-1.53 10.941,-2.55 16.301,-4.56c-1.61,-0.63 -3.23,-1.18 -4.92,-1.54Zm-116.69,7.689c-5.07,4.06 -10.63,5.761 -16.35,8.671c2.02,1.76 4.38,3.03 6.24,4.93c0.48,0.21 1,0.32 1.56,0.33c2.82,-1.57 5.68,-3.01 8.66,-4.23c0.03,-3.23 -0.05,-6.471 -0.11,-9.701Zm-165.569,3.151c1.14,1.9 2.398,3.48 4.508,4.31c6.5,2.82 14.631,1.73 21.481,1.26c-2.84,-1.49 -4.869,-3.49 -8.279,-3.32c-6.14,0.17 -11.79,-0.78 -17.71,-2.25Zm146.639,7.04c-4.86,1.61 -9.48,3.94 -14.27,5.75c-14.23,5.46 -28.71,10.139 -43.7,13.019c0.25,0.62 0.511,1.23 0.761,1.85c1.24,0.68 2.498,1.372 3.698,2.132c17.73,-4.31 35.301,-8.532 52.471,-14.822c3.27,-1.32 6.449,-2.679 9.949,-3.329l-0.149,-0.56c-3.07,-0.46 -5.83,-2.84 -8.76,-4.04Zm-130.071,9.91c0.39,3.06 0.721,5.82 3.261,7.91c4.09,3.29 9.939,4.68 15.029,5.47c16.5,1.93 33.281,1.83 49.831,0.59c5.9,-1.16 10.339,5.98 14.959,8.66c6.19,-0.88 12.151,-3.531 18.211,-5.111c12.2,-3.34 24.14,-7.449 36.29,-10.939c6.27,-1.7 11.14,-4.709 17.88,-3.259l-0.76,-1.092c-1.56,-0.43 -3.13,-0.899 -4.69,-1.369c-21.32,5.65 -42.55,11.64 -63.85,17.36c-1.3,0.24 -3.24,0.96 -4.44,0.17c-2.95,-1.72 -5.589,-4.05 -8.229,-6.2c-1.42,-1.03 -2.872,-2.001 -4.322,-2.981c-17.86,2.71 -36.418,1.661 -54.058,-2.039c-5.63,-1.13 -10.892,-3.17 -15.112,-7.17Z" style="fill:#7f6545;fill-rule:nonzero;"/><path id="path1493" d="M173.92,79.87c2.36,0.68 4.63,1.52 6.93,2.35c0.11,24.12 0.03,48.24 0.03,72.36c-3.52,1.94 -7.04,3.9 -10.65,5.69c0.89,-9.81 0.74,-19.61 -1.11,-29.3c-1.39,-6.85 -2.8,-13.27 -7.21,-18.9c-6.63,-8.43 -17.49,-13.6 -27.85,-15.56c8.56,-4.35 17.27,-8.24 25.57,-13.08c4.88,-1.73 8.91,-4.23 14.29,-3.56Z" style="fill-rule:nonzero;"/><path id="path1499" d="M127.97,89.569c-1.91,0.71 -3.38,1.041 -4.39,2.971c-4.14,6.87 -8.26,13.75 -12.57,20.52c1.78,4.77 3.03,9.649 4.21,14.589c7.23,-11.61 12.2,-24.29 12.75,-38.08Zm-103.93,10.801c-1.25,0.04 -2.49,0.08 -3.74,0.12c3.29,7.24 7.21,14.01 12.6,19.92c0.97,-3.39 1.999,-6.75 3.129,-10.09c-4.05,-3.25 -8.059,-6.55 -11.989,-9.95Zm32.299,46.29c-6.13,0.88 -8.169,8.471 -5.299,13.291c3.73,3.42 11.4,4.1 14.9,-0c2.75,-5.05 0.51,-11.651 -5.32,-13.111c-1.02,2.21 -3.181,1.61 -4.281,-0.18Z" style="fill-rule:nonzero;"/><path id="path1505" d="M43.907,129.192c-4.612,-0.201 -6.879,5.957 -6.167,9.848c0.57,3.16 2.65,4.4 5.28,5.76c2.47,-1.55 4.819,-2.73 5.529,-5.81c0.89,-3.46 0.24,-8.451 -3.69,-9.671c-0.328,-0.072 -0.644,-0.114 -0.952,-0.127Zm36.942,4.246c-0.926,0.034 -1.809,0.227 -2.499,0.862c-4.2,3.06 -4.86,9.89 -1.34,13.7c2.63,2.56 6.72,1.18 8.36,-1.76c2.52,-4.42 1.91,-9.181 -1.76,-12.711c-0.865,0 -1.835,-0.124 -2.761,-0.091Z" style="fill:#717e39;fill-rule:nonzero;stroke:#2b5000;stroke-width:1px;"/><path id="path15051" serif:id="path1505" d="M58.506,146.213c-0.696,-0.021 -1.402,0.137 -2.167,0.447c1.1,1.79 3.261,2.39 4.281,0.18c-0.73,-0.405 -1.418,-0.605 -2.114,-0.627Zm-0.526,5.037c-1.44,0.48 -2.86,1.02 -4.28,1.57c1.38,-0.07 2.759,-0.15 4.139,-0.24c1.77,0.5 3.55,0.929 5.37,1.259c-1.01,-0.57 -2.039,-1.098 -3.089,-1.618c-0.7,-0.34 -1.42,-0.661 -2.14,-0.971Zm26.522,4.375c-0.359,0.004 -0.732,0.019 -1.122,0.045c0.01,0.88 0.05,1.76 0.14,2.64c2.23,1.34 4.53,2.63 6.9,3.7c-1.98,-1.84 -4.25,-3.28 -6.32,-4.99c2.48,-0.53 4.68,0.13 7.16,0.37c-2.389,-1.251 -4.242,-1.79 -6.758,-1.765Z" style="fill:#867b79;fill-rule:nonzero;"/><path id="path1507" d="M44.47,130.31c-1.7,0.59 -3.839,-0.279 -4.119,2.001c-0.51,0.96 1.058,2.179 1.448,3.019c-0.79,1.54 -2.27,3.94 -0.4,5.26c2.16,1.62 4.631,1 5.221,-1.73c0.42,-2.06 -1.499,-2.641 -2.749,-3.831c0.56,-1.64 0.679,-2.999 0.599,-4.719Zm35.557,4.362c-0.792,0.029 -1.586,0.502 -2.116,1.397c-1.48,1.84 0.869,2.661 1.949,3.761c-1.51,1.66 -3.271,3.42 -1.191,5.49c2.21,2.39 5.881,0.77 5.811,-2.3c-0.21,-2.05 -1.89,-2.43 -3.35,-3.46c0.48,-1.2 1.859,-2.319 0.999,-3.609c-0.52,-0.89 -1.309,-1.308 -2.102,-1.279Z" style="fill:#fdfdfd;fill-rule:nonzero;"/><text x="12px" y="67.232px" style="font-family:'Sohne-Extrafett', 'Söhne', sans-serif;font-weight:900;font-size:24px;">?!</text><path d="M30,145c0,0 5.406,0.959 8,3c2.594,2.041 -2.501,-0.538 -8,-3Z" style="fill:#867b79;"/></svg>